<svg id="mainImage_create" data-name="mainImage" xmlns="http://www.w3.org/2000/svg" viewBox="0 0 171.2 81.5"><style id="svgStyle">@keyframes earmove{0%,30%{transform:translateX(-.3px) translateY(.6px)}60%{transform:translateX(-.7px) translateY(0)}70%{transform:translateX(-.7px) translateY(-.3px)}}@keyframes move{0%,30%{transform:translateX(-.3px) translateY(.6px)}60%{transform:translateX(2px) translateY(0)}70%{transform:translateX(2px) translateY(-.3px)}}@keyframes neck{0%,50%{transform:translateY(.7px)}}.changeColor{fill:#4f86ed}.cls-7{opacity:.8}.cls-2{fill:#fff}.cls-12,.cls-14,.cls-16,.cls-3{fill:none}.cls-3{stroke:#5c7690}.cls-12,.cls-3{stroke-miterlimit:10}.cls-14,.cls-15,.cls-16,.cls-3{stroke-width:.5px}.cls-4{fill:#ffe1d9}.cls-5{fill:#ffcfbf}.cls-12{stroke:#d26f51;stroke-width:.19px}.cls-13{opacity:.45}.cls-14,.cls-15,.cls-16{stroke:#b0bec5;stroke-linejoin:round}.cls-15{fill:#edf0f2}.cls-16{stroke-linecap:round}.earMove,.faceMove{transition:all ease-in-out 2s;transform-origin:50% 50%;animation:earmove 1.5s linear infinite alternate}.faceMove{animation:move 1.5s linear infinite alternate}</style><path id="c-1" class="changeColor" d="M46.62 52.5c5.78 4.9 21.14 8.4 39.19 8.4s33.41-3.5 39.19-8.4c-5.78-4.9-21.14-8.4-39.19-8.4s-33.4 3.5-39.19 8.4z" fill="#000" opacity=".3"/><path class="cls-2" d="M99.73 47.71H68.65a7.13 7.13 0 00-7.13 7.13V60a152.58 152.58 0 0024.3 1.83 157.87 157.87 0 0021.05-1.35v-5.64a7.13 7.13 0 00-7.14-7.13z"/><path class="cls-3" d="M123.56 55.81C115 58.94 101.27 61 85.81 61c-26 0-47-5.71-47-12.76 0-3.45 5.05-6.58 13.25-8.88m3.31-.89a140 140 0 0130.44-3c26 0 47 5.71 47 12.76 0 2.4-2.44 4.65-6.69 6.57M53.41 38.95l.94-.24"/><path class="cls-4" d="M91.68 47.71l-.75-11.2-11.78 7.33-1.69 3.87h-1.67c0 3.36 3.76 6.08 8.4 6.08s8.4-2.72 8.4-6.08z"/><path class="cls-5" d="M78 46.53a27.19 27.19 0 006.41.82c3.1 0 7.11-2.19 7.11-2.19l-.42-6.2-11.95 4.88z" style="transition:all ease-in-out 2s;transform-origin:50% 50%;animation:neck 1.5s linear infinite alternate"/><path class="earMove" d="M92.59 32.22V28.5l-15.82-.79v4.51h15.82z"/><circle class="earMove" cx="78.06" cy="34.04" r="2.47" fill="#fecbb6"/><path class="cls-4" d="M81.74 57.06l-21.11-7.34a6.72 6.72 0 10-2.93 12.77h35.55c0-5.71-11.51-5.43-11.51-5.43zM77.46 25h13.46v14.38a6.73 6.73 0 01-6.73 6.73 6.73 6.73 0 01-6.73-6.73V25z"/><path id="c-2" class="changeColor cls-7" transform="rotate(2.49 84.62 27.854)" fill="#000" d="M74.82 26.48h19.14v2.45H74.82z"/><path id="c-3" class="changeColor cls-7" d="M84.36 18.69h.5a7.8 7.8 0 017.8 7.8h-16.1a7.8 7.8 0 017.8-7.8z" transform="rotate(2.49 84.735 22.557)" fill="#000"/><path id="c-4" class="changeColor cls-8" fill="#000" d="M82.44 23.89l9.74.43.41.02-.11 2.5-11.52-.51 1.48-2.44z"/><circle class="faceMove" cx="78.72" cy="23.73" r="3.73" transform="rotate(-87.51 78.711 23.734)" fill="#fecb02"/><circle class="cls-2 faceMove" cx="78.72" cy="23.73" r="2.36" transform="rotate(-87.51 78.711 23.734)"/><circle class="cls-4 earMove" cx="90.92" cy="34.04" r="2.47"/><path class="cls-4" d="M112.2 53l-9.87-21.92-3-5.48-11.86-.22 7.42 3.35h-3.34l5.82 4.58 2 22.26A6.72 6.72 0 10112.2 53z"/><ellipse class="faceMove" cx="80.09" cy="33.12" rx=".53" ry=".59"/><ellipse class="faceMove" cx="86.34" cy="33.12" rx=".53" ry=".59"/><path class="faceMove" d="M84.19 31.08l-2.45 5.93h2.65m-1.33 3.35a4 4 0 012.75-1" stroke-width=".38" stroke="#d26f51" stroke-miterlimit="10" fill="none"/><path class="faceMove" d="M81.07 30.33l-2.6.25m7.87-.13l1.81.63" stroke="#000" stroke-width=".38" stroke-miterlimit="10" fill="none"/><path class="cls-12" d="M106.86 47.82l4.13-1.71m-3.56 3.79l4.12-1.71m-3.56 3.79l4.12-1.71"/><g class="cls-13"><path class="cls-14" d="M85.81 2.46h10.77v3.5H85.81z"/><path class="cls-15" d="M96.58 2.46h10.77v3.5H96.58z"/><path class="cls-14" d="M92.19 5.95h10.77v3.5H92.19z"/><path class="cls-16" d="M107.36 5.95h2.27m1.05 0h.89"/></g><g class="cls-13"><path class="cls-16" d="M125 23.12h10.77v3.5H125z"/><path class="cls-15" d="M130.39 26.62h10.77v3.5h-10.77z"/><path class="cls-16" d="M119.62 26.62h10.77v3.5h-10.77zm21.54 0h4.57M125 23.12h-9.6m2.55 3.5h-2.55"/></g><g class="cls-13"><path class="cls-16" d="M39.34 16.12h10.77v3.5H39.34zm0 6.99h10.77v3.5H39.34zm10.77 0h10.77v3.5H50.11zm0-6.99h10.77v3.5H50.11z"/><path class="cls-15" d="M44 19.61h10.77v3.5H44z"/><path class="cls-16" d="M33.23 19.61H44v3.5H33.23zm27.66 0h4.62m-26.17-3.49h-3.88m.99 10.49h-3.22m29.97-3.5h2.31"/></g><path class="cls-3" d="M115.4 58.12V38.27l4.8-1.26m8.81 16.2V43.14l2.73-1.01"/><path class="cls-3" d="M115.4 42.13a53.27 53.27 0 018 2A42 42 0 01129 47m-13.6.34a53.27 53.27 0 018 2 42 42 0 015.6 2.88m-13.6.34a53.27 53.27 0 018 2l1 .42"/><path class="faceMove" d="M78.84 26.09v-4.71l-10.79-3.06a.91.91 0 00-.45-.13c-1.17 0-2.11 2.46-2.11 5.5s.95 5.5 2.11 5.5a.9.9 0 00.44-.12z" fill="#fffdbb" opacity=".5"/><path class="cls-5" d="M57.7 62.49h35.55a3.67 3.67 0 00-.33-1.49H53.43a6.69 6.69 0 004.27 1.49z"/><path class="cls-12" d="M88.15 60.27s1.7.95 1.7 2.22"/><path class="cls-5" d="M101.81 61a6.68 6.68 0 008.51 0zM90.92 30.25l-13.46-.56v-1.05l13.46.58v1.03z"/><text transform="translate(51.725 78)" font-size="50%" font-family="'Merriweather',serif">404 Page not found</text></svg>