<?xml version="1.0" encoding="UTF-8" standalone="no"?>
<!DOCTYPE svg PUBLIC "-//W3C//DTD SVG 1.1//EN" "http://www.w3.org/Graphics/SVG/1.1/DTD/svg11.dtd">
<!-- Created with matplotlib (https://matplotlib.org/) -->
<svg height="262.19625pt" version="1.1" viewBox="0 0 376.240625 262.19625" width="376.240625pt" xmlns="http://www.w3.org/2000/svg" xmlns:xlink="http://www.w3.org/1999/xlink">
 <defs>
  <style type="text/css">
*{stroke-linecap:butt;stroke-linejoin:round;}
  </style>
 </defs>
 <g id="figure_1">
  <g id="patch_1">
   <path d="M 0 262.19625  L 376.240625 262.19625  L 376.240625 0  L 0 0  z " style="fill:none;"/>
  </g>
  <g id="axes_1">
   <g id="patch_2">
    <path d="M 34.240625 224.64  L 369.040625 224.64  L 369.040625 7.2  L 34.240625 7.2  z " style="fill:#ffffff;"/>
   </g>
   <g id="PathCollection_1">
    <defs>
     <path d="M 0 3.535534  C 0.937635 3.535534 1.836992 3.163008 2.5 2.5  C 3.163008 1.836992 3.535534 0.937635 3.535534 0  C 3.535534 -0.937635 3.163008 -1.836992 2.5 -2.5  C 1.836992 -3.163008 0.937635 -3.535534 0 -3.535534  C -0.937635 -3.535534 -1.836992 -3.163008 -2.5 -2.5  C -3.163008 -1.836992 -3.535534 -0.937635 -3.535534 0  C -3.535534 0.937635 -3.163008 1.836992 -2.5 2.5  C -1.836992 3.163008 -0.937635 3.535534 0 3.535534  z " id="C0_0_e3304850e0"/>
    </defs>
    <g clip-path="url(#pb89490b4bb)">
     <use style="fill:#440154;stroke:#440154;" x="353.822443" xlink:href="#C0_0_e3304850e0" y="214.243934"/>
    </g>
    <g clip-path="url(#pb89490b4bb)">
     <use style="fill:#21918c;stroke:#21918c;" x="143.286291" xlink:href="#C0_0_e3304850e0" y="210.427718"/>
    </g>
    <g clip-path="url(#pb89490b4bb)">
     <use style="fill:#21918c;stroke:#21918c;" x="103.838202" xlink:href="#C0_0_e3304850e0" y="210.109176"/>
    </g>
    <g clip-path="url(#pb89490b4bb)">
     <use style="fill:#21918c;stroke:#21918c;" x="152.805053" xlink:href="#C0_0_e3304850e0" y="210.089408"/>
    </g>
    <g clip-path="url(#pb89490b4bb)">
     <use style="fill:#440154;stroke:#440154;" x="305.473247" xlink:href="#C0_0_e3304850e0" y="213.55335"/>
    </g>
    <g clip-path="url(#pb89490b4bb)">
     <use style="fill:#21918c;stroke:#21918c;" x="54.998326" xlink:href="#C0_0_e3304850e0" y="192.831458"/>
    </g>
    <g clip-path="url(#pb89490b4bb)">
     <use style="fill:#21918c;stroke:#21918c;" x="129.185698" xlink:href="#C0_0_e3304850e0" y="212.292397"/>
    </g>
    <g clip-path="url(#pb89490b4bb)">
     <use style="fill:#21918c;stroke:#21918c;" x="130.30264" xlink:href="#C0_0_e3304850e0" y="212.116022"/>
    </g>
    <g clip-path="url(#pb89490b4bb)">
     <use style="fill:#21918c;stroke:#21918c;" x="126.084514" xlink:href="#C0_0_e3304850e0" y="212.215015"/>
    </g>
    <g clip-path="url(#pb89490b4bb)">
     <use style="fill:#440154;stroke:#440154;" x="335.088367" xlink:href="#C0_0_e3304850e0" y="213.872976"/>
    </g>
    <g clip-path="url(#pb89490b4bb)">
     <use style="fill:#440154;stroke:#440154;" x="276.811509" xlink:href="#C0_0_e3304850e0" y="193.799701"/>
    </g>
    <g clip-path="url(#pb89490b4bb)">
     <use style="fill:#21918c;stroke:#21918c;" x="120.788183" xlink:href="#C0_0_e3304850e0" y="211.623421"/>
    </g>
    <g clip-path="url(#pb89490b4bb)">
     <use style="fill:#21918c;stroke:#21918c;" x="163.666728" xlink:href="#C0_0_e3304850e0" y="207.239888"/>
    </g>
    <g clip-path="url(#pb89490b4bb)">
     <use style="fill:#440154;stroke:#440154;" x="319.203678" xlink:href="#C0_0_e3304850e0" y="212.176919"/>
    </g>
    <g clip-path="url(#pb89490b4bb)">
     <use style="fill:#21918c;stroke:#21918c;" x="156.538955" xlink:href="#C0_0_e3304850e0" y="213.461483"/>
    </g>
    <g clip-path="url(#pb89490b4bb)">
     <use style="fill:#21918c;stroke:#21918c;" x="120.725772" xlink:href="#C0_0_e3304850e0" y="199.081182"/>
    </g>
    <g clip-path="url(#pb89490b4bb)">
     <use style="fill:#440154;stroke:#440154;" x="207.528785" xlink:href="#C0_0_e3304850e0" y="211.506751"/>
    </g>
    <g clip-path="url(#pb89490b4bb)">
     <use style="fill:#21918c;stroke:#21918c;" x="88.317219" xlink:href="#C0_0_e3304850e0" y="204.125153"/>
    </g>
    <g clip-path="url(#pb89490b4bb)">
     <use style="fill:#21918c;stroke:#21918c;" x="90.837334" xlink:href="#C0_0_e3304850e0" y="182.48183"/>
    </g>
    <g clip-path="url(#pb89490b4bb)">
     <use style="fill:#21918c;stroke:#21918c;" x="90.686687" xlink:href="#C0_0_e3304850e0" y="207.493831"/>
    </g>
    <g clip-path="url(#pb89490b4bb)">
     <use style="fill:#21918c;stroke:#21918c;" x="154.195313" xlink:href="#C0_0_e3304850e0" y="213.767261"/>
    </g>
    <g clip-path="url(#pb89490b4bb)">
     <use style="fill:#440154;stroke:#440154;" x="260.091803" xlink:href="#C0_0_e3304850e0" y="212.959398"/>
    </g>
    <g clip-path="url(#pb89490b4bb)">
     <use style="fill:#21918c;stroke:#21918c;" x="80.952715" xlink:href="#C0_0_e3304850e0" y="191.743523"/>
    </g>
    <g clip-path="url(#pb89490b4bb)">
     <use style="fill:#21918c;stroke:#21918c;" x="63.628268" xlink:href="#C0_0_e3304850e0" y="214.756364"/>
    </g>
    <g clip-path="url(#pb89490b4bb)">
     <use style="fill:#fde725;stroke:#fde725;" x="50.717788" xlink:href="#C0_0_e3304850e0" y="17.083636"/>
    </g>
    <g clip-path="url(#pb89490b4bb)">
     <use style="fill:#21918c;stroke:#21918c;" x="114.484667" xlink:href="#C0_0_e3304850e0" y="195.558914"/>
    </g>
    <g clip-path="url(#pb89490b4bb)">
     <use style="fill:#21918c;stroke:#21918c;" x="53.014085" xlink:href="#C0_0_e3304850e0" y="214.756364"/>
    </g>
    <g clip-path="url(#pb89490b4bb)">
     <use style="fill:#21918c;stroke:#21918c;" x="92.057578" xlink:href="#C0_0_e3304850e0" y="207.647664"/>
    </g>
    <g clip-path="url(#pb89490b4bb)">
     <use style="fill:#440154;stroke:#440154;" x="241.01339" xlink:href="#C0_0_e3304850e0" y="195.475873"/>
    </g>
    <g clip-path="url(#pb89490b4bb)">
     <use style="fill:#21918c;stroke:#21918c;" x="140.331451" xlink:href="#C0_0_e3304850e0" y="214.756364"/>
    </g>
    <g clip-path="url(#pb89490b4bb)">
     <use style="fill:#21918c;stroke:#21918c;" x="176.514796" xlink:href="#C0_0_e3304850e0" y="213.074132"/>
    </g>
    <g clip-path="url(#pb89490b4bb)">
     <use style="fill:#440154;stroke:#440154;" x="190.634759" xlink:href="#C0_0_e3304850e0" y="213.347655"/>
    </g>
    <g clip-path="url(#pb89490b4bb)">
     <use style="fill:#21918c;stroke:#21918c;" x="49.458807" xlink:href="#C0_0_e3304850e0" y="195.849331"/>
    </g>
    <g clip-path="url(#pb89490b4bb)">
     <use style="fill:#440154;stroke:#440154;" x="298.502578" xlink:href="#C0_0_e3304850e0" y="212.905455"/>
    </g>
    <g clip-path="url(#pb89490b4bb)">
     <use style="fill:#21918c;stroke:#21918c;" x="80.830045" xlink:href="#C0_0_e3304850e0" y="165.106653"/>
    </g>
    <g clip-path="url(#pb89490b4bb)">
     <use style="fill:#440154;stroke:#440154;" x="294.695504" xlink:href="#C0_0_e3304850e0" y="213.583073"/>
    </g>
    <g clip-path="url(#pb89490b4bb)">
     <use style="fill:#440154;stroke:#440154;" x="196.708" xlink:href="#C0_0_e3304850e0" y="214.756364"/>
    </g>
    <g clip-path="url(#pb89490b4bb)">
     <use style="fill:#21918c;stroke:#21918c;" x="72.505702" xlink:href="#C0_0_e3304850e0" y="196.236697"/>
    </g>
    <g clip-path="url(#pb89490b4bb)">
     <use style="fill:#21918c;stroke:#21918c;" x="118.765204" xlink:href="#C0_0_e3304850e0" y="211.096634"/>
    </g>
    <g clip-path="url(#pb89490b4bb)">
     <use style="fill:#21918c;stroke:#21918c;" x="103.136616" xlink:href="#C0_0_e3304850e0" y="186.339262"/>
    </g>
   </g>
   <g id="PathCollection_2">
    <defs>
     <path d="M 0 7.071068  C 1.875269 7.071068 3.673985 6.326016 5 5  C 6.326016 3.673985 7.071068 1.875269 7.071068 0  C 7.071068 -1.875269 6.326016 -3.673985 5 -5  C 3.673985 -6.326016 1.875269 -7.071068 0 -7.071068  C -1.875269 -7.071068 -3.673985 -6.326016 -5 -5  C -6.326016 -3.673985 -7.071068 -1.875269 -7.071068 0  C -7.071068 1.875269 -6.326016 3.673985 -5 5  C -3.673985 6.326016 -1.875269 7.071068 0 7.071068  z " id="m46330864b3" style="stroke:#000000;stroke-opacity:0.5;"/>
    </defs>
    <g clip-path="url(#pb89490b4bb)">
     <use style="fill-opacity:0.5;stroke:#000000;stroke-opacity:0.5;" x="273.297839" xlink:href="#m46330864b3" y="210.181787"/>
     <use style="fill-opacity:0.5;stroke:#000000;stroke-opacity:0.5;" x="110.071735" xlink:href="#m46330864b3" y="203.936191"/>
     <use style="fill-opacity:0.5;stroke:#000000;stroke-opacity:0.5;" x="50.717788" xlink:href="#m46330864b3" y="17.083636"/>
    </g>
   </g>
   <g id="matplotlib.axis_1">
    <g id="xtick_1">
     <g id="line2d_1">
      <defs>
       <path d="M 0 0  L 0 3.5  " id="m0fbd296a0f" style="stroke:#000000;stroke-width:0.8;"/>
      </defs>
      <g>
       <use style="stroke:#000000;stroke-width:0.8;" x="71.054913" xlink:href="#m0fbd296a0f" y="224.64"/>
      </g>
     </g>
     <g id="text_1">
      <!-- −1.0 -->
      <defs>
       <path d="M 10.59375 35.5  L 73.1875 35.5  L 73.1875 27.203125  L 10.59375 27.203125  z " id="DejaVuSans-8722"/>
       <path d="M 12.40625 8.296875  L 28.515625 8.296875  L 28.515625 63.921875  L 10.984375 60.40625  L 10.984375 69.390625  L 28.421875 72.90625  L 38.28125 72.90625  L 38.28125 8.296875  L 54.390625 8.296875  L 54.390625 0  L 12.40625 0  z " id="DejaVuSans-49"/>
       <path d="M 10.6875 12.40625  L 21 12.40625  L 21 0  L 10.6875 0  z " id="DejaVuSans-46"/>
       <path d="M 31.78125 66.40625  Q 24.171875 66.40625 20.328125 58.90625  Q 16.5 51.421875 16.5 36.375  Q 16.5 21.390625 20.328125 13.890625  Q 24.171875 6.390625 31.78125 6.390625  Q 39.453125 6.390625 43.28125 13.890625  Q 47.125 21.390625 47.125 36.375  Q 47.125 51.421875 43.28125 58.90625  Q 39.453125 66.40625 31.78125 66.40625  z M 31.78125 74.21875  Q 44.046875 74.21875 50.515625 64.515625  Q 56.984375 54.828125 56.984375 36.375  Q 56.984375 17.96875 50.515625 8.265625  Q 44.046875 -1.421875 31.78125 -1.421875  Q 19.53125 -1.421875 13.0625 8.265625  Q 6.59375 17.96875 6.59375 36.375  Q 6.59375 54.828125 13.0625 64.515625  Q 19.53125 74.21875 31.78125 74.21875  z " id="DejaVuSans-48"/>
      </defs>
      <g transform="translate(58.913507 239.238437)scale(0.1 -0.1)">
       <use xlink:href="#DejaVuSans-8722"/>
       <use x="83.789062" xlink:href="#DejaVuSans-49"/>
       <use x="147.412109" xlink:href="#DejaVuSans-46"/>
       <use x="179.199219" xlink:href="#DejaVuSans-48"/>
      </g>
     </g>
    </g>
    <g id="xtick_2">
     <g id="line2d_2">
      <g>
       <use style="stroke:#000000;stroke-width:0.8;" x="114.305315" xlink:href="#m0fbd296a0f" y="224.64"/>
      </g>
     </g>
     <g id="text_2">
      <!-- −0.5 -->
      <defs>
       <path d="M 10.796875 72.90625  L 49.515625 72.90625  L 49.515625 64.59375  L 19.828125 64.59375  L 19.828125 46.734375  Q 21.96875 47.46875 24.109375 47.828125  Q 26.265625 48.1875 28.421875 48.1875  Q 40.625 48.1875 47.75 41.5  Q 54.890625 34.8125 54.890625 23.390625  Q 54.890625 11.625 47.5625 5.09375  Q 40.234375 -1.421875 26.90625 -1.421875  Q 22.3125 -1.421875 17.546875 -0.640625  Q 12.796875 0.140625 7.71875 1.703125  L 7.71875 11.625  Q 12.109375 9.234375 16.796875 8.0625  Q 21.484375 6.890625 26.703125 6.890625  Q 35.15625 6.890625 40.078125 11.328125  Q 45.015625 15.765625 45.015625 23.390625  Q 45.015625 31 40.078125 35.4375  Q 35.15625 39.890625 26.703125 39.890625  Q 22.75 39.890625 18.8125 39.015625  Q 14.890625 38.140625 10.796875 36.28125  z " id="DejaVuSans-53"/>
      </defs>
      <g transform="translate(102.163909 239.238437)scale(0.1 -0.1)">
       <use xlink:href="#DejaVuSans-8722"/>
       <use x="83.789062" xlink:href="#DejaVuSans-48"/>
       <use x="147.412109" xlink:href="#DejaVuSans-46"/>
       <use x="179.199219" xlink:href="#DejaVuSans-53"/>
      </g>
     </g>
    </g>
    <g id="xtick_3">
     <g id="line2d_3">
      <g>
       <use style="stroke:#000000;stroke-width:0.8;" x="157.555718" xlink:href="#m0fbd296a0f" y="224.64"/>
      </g>
     </g>
     <g id="text_3">
      <!-- 0.0 -->
      <g transform="translate(149.604155 239.238437)scale(0.1 -0.1)">
       <use xlink:href="#DejaVuSans-48"/>
       <use x="63.623047" xlink:href="#DejaVuSans-46"/>
       <use x="95.410156" xlink:href="#DejaVuSans-48"/>
      </g>
     </g>
    </g>
    <g id="xtick_4">
     <g id="line2d_4">
      <g>
       <use style="stroke:#000000;stroke-width:0.8;" x="200.80612" xlink:href="#m0fbd296a0f" y="224.64"/>
      </g>
     </g>
     <g id="text_4">
      <!-- 0.5 -->
      <g transform="translate(192.854557 239.238437)scale(0.1 -0.1)">
       <use xlink:href="#DejaVuSans-48"/>
       <use x="63.623047" xlink:href="#DejaVuSans-46"/>
       <use x="95.410156" xlink:href="#DejaVuSans-53"/>
      </g>
     </g>
    </g>
    <g id="xtick_5">
     <g id="line2d_5">
      <g>
       <use style="stroke:#000000;stroke-width:0.8;" x="244.056522" xlink:href="#m0fbd296a0f" y="224.64"/>
      </g>
     </g>
     <g id="text_5">
      <!-- 1.0 -->
      <g transform="translate(236.104959 239.238437)scale(0.1 -0.1)">
       <use xlink:href="#DejaVuSans-49"/>
       <use x="63.623047" xlink:href="#DejaVuSans-46"/>
       <use x="95.410156" xlink:href="#DejaVuSans-48"/>
      </g>
     </g>
    </g>
    <g id="xtick_6">
     <g id="line2d_6">
      <g>
       <use style="stroke:#000000;stroke-width:0.8;" x="287.306924" xlink:href="#m0fbd296a0f" y="224.64"/>
      </g>
     </g>
     <g id="text_6">
      <!-- 1.5 -->
      <g transform="translate(279.355361 239.238437)scale(0.1 -0.1)">
       <use xlink:href="#DejaVuSans-49"/>
       <use x="63.623047" xlink:href="#DejaVuSans-46"/>
       <use x="95.410156" xlink:href="#DejaVuSans-53"/>
      </g>
     </g>
    </g>
    <g id="xtick_7">
     <g id="line2d_7">
      <g>
       <use style="stroke:#000000;stroke-width:0.8;" x="330.557326" xlink:href="#m0fbd296a0f" y="224.64"/>
      </g>
     </g>
     <g id="text_7">
      <!-- 2.0 -->
      <defs>
       <path d="M 19.1875 8.296875  L 53.609375 8.296875  L 53.609375 0  L 7.328125 0  L 7.328125 8.296875  Q 12.9375 14.109375 22.625 23.890625  Q 32.328125 33.6875 34.8125 36.53125  Q 39.546875 41.84375 41.421875 45.53125  Q 43.3125 49.21875 43.3125 52.78125  Q 43.3125 58.59375 39.234375 62.25  Q 35.15625 65.921875 28.609375 65.921875  Q 23.96875 65.921875 18.8125 64.3125  Q 13.671875 62.703125 7.8125 59.421875  L 7.8125 69.390625  Q 13.765625 71.78125 18.9375 73  Q 24.125 74.21875 28.421875 74.21875  Q 39.75 74.21875 46.484375 68.546875  Q 53.21875 62.890625 53.21875 53.421875  Q 53.21875 48.921875 51.53125 44.890625  Q 49.859375 40.875 45.40625 35.40625  Q 44.1875 33.984375 37.640625 27.21875  Q 31.109375 20.453125 19.1875 8.296875  z " id="DejaVuSans-50"/>
      </defs>
      <g transform="translate(322.605763 239.238437)scale(0.1 -0.1)">
       <use xlink:href="#DejaVuSans-50"/>
       <use x="63.623047" xlink:href="#DejaVuSans-46"/>
       <use x="95.410156" xlink:href="#DejaVuSans-48"/>
      </g>
     </g>
    </g>
    <g id="text_8">
     <!-- Population -->
     <defs>
      <path d="M 19.671875 64.796875  L 19.671875 37.40625  L 32.078125 37.40625  Q 38.96875 37.40625 42.71875 40.96875  Q 46.484375 44.53125 46.484375 51.125  Q 46.484375 57.671875 42.71875 61.234375  Q 38.96875 64.796875 32.078125 64.796875  z M 9.8125 72.90625  L 32.078125 72.90625  Q 44.34375 72.90625 50.609375 67.359375  Q 56.890625 61.8125 56.890625 51.125  Q 56.890625 40.328125 50.609375 34.8125  Q 44.34375 29.296875 32.078125 29.296875  L 19.671875 29.296875  L 19.671875 0  L 9.8125 0  z " id="DejaVuSans-80"/>
      <path d="M 30.609375 48.390625  Q 23.390625 48.390625 19.1875 42.75  Q 14.984375 37.109375 14.984375 27.296875  Q 14.984375 17.484375 19.15625 11.84375  Q 23.34375 6.203125 30.609375 6.203125  Q 37.796875 6.203125 41.984375 11.859375  Q 46.1875 17.53125 46.1875 27.296875  Q 46.1875 37.015625 41.984375 42.703125  Q 37.796875 48.390625 30.609375 48.390625  z M 30.609375 56  Q 42.328125 56 49.015625 48.375  Q 55.71875 40.765625 55.71875 27.296875  Q 55.71875 13.875 49.015625 6.21875  Q 42.328125 -1.421875 30.609375 -1.421875  Q 18.84375 -1.421875 12.171875 6.21875  Q 5.515625 13.875 5.515625 27.296875  Q 5.515625 40.765625 12.171875 48.375  Q 18.84375 56 30.609375 56  z " id="DejaVuSans-111"/>
      <path d="M 18.109375 8.203125  L 18.109375 -20.796875  L 9.078125 -20.796875  L 9.078125 54.6875  L 18.109375 54.6875  L 18.109375 46.390625  Q 20.953125 51.265625 25.265625 53.625  Q 29.59375 56 35.59375 56  Q 45.5625 56 51.78125 48.09375  Q 58.015625 40.1875 58.015625 27.296875  Q 58.015625 14.40625 51.78125 6.484375  Q 45.5625 -1.421875 35.59375 -1.421875  Q 29.59375 -1.421875 25.265625 0.953125  Q 20.953125 3.328125 18.109375 8.203125  z M 48.6875 27.296875  Q 48.6875 37.203125 44.609375 42.84375  Q 40.53125 48.484375 33.40625 48.484375  Q 26.265625 48.484375 22.1875 42.84375  Q 18.109375 37.203125 18.109375 27.296875  Q 18.109375 17.390625 22.1875 11.75  Q 26.265625 6.109375 33.40625 6.109375  Q 40.53125 6.109375 44.609375 11.75  Q 48.6875 17.390625 48.6875 27.296875  z " id="DejaVuSans-112"/>
      <path d="M 8.5 21.578125  L 8.5 54.6875  L 17.484375 54.6875  L 17.484375 21.921875  Q 17.484375 14.15625 20.5 10.265625  Q 23.53125 6.390625 29.59375 6.390625  Q 36.859375 6.390625 41.078125 11.03125  Q 45.3125 15.671875 45.3125 23.6875  L 45.3125 54.6875  L 54.296875 54.6875  L 54.296875 0  L 45.3125 0  L 45.3125 8.40625  Q 42.046875 3.421875 37.71875 1  Q 33.40625 -1.421875 27.6875 -1.421875  Q 18.265625 -1.421875 13.375 4.4375  Q 8.5 10.296875 8.5 21.578125  z M 31.109375 56  z " id="DejaVuSans-117"/>
      <path d="M 9.421875 75.984375  L 18.40625 75.984375  L 18.40625 0  L 9.421875 0  z " id="DejaVuSans-108"/>
      <path d="M 34.28125 27.484375  Q 23.390625 27.484375 19.1875 25  Q 14.984375 22.515625 14.984375 16.5  Q 14.984375 11.71875 18.140625 8.90625  Q 21.296875 6.109375 26.703125 6.109375  Q 34.1875 6.109375 38.703125 11.40625  Q 43.21875 16.703125 43.21875 25.484375  L 43.21875 27.484375  z M 52.203125 31.203125  L 52.203125 0  L 43.21875 0  L 43.21875 8.296875  Q 40.140625 3.328125 35.546875 0.953125  Q 30.953125 -1.421875 24.3125 -1.421875  Q 15.921875 -1.421875 10.953125 3.296875  Q 6 8.015625 6 15.921875  Q 6 25.140625 12.171875 29.828125  Q 18.359375 34.515625 30.609375 34.515625  L 43.21875 34.515625  L 43.21875 35.40625  Q 43.21875 41.609375 39.140625 45  Q 35.0625 48.390625 27.6875 48.390625  Q 23 48.390625 18.546875 47.265625  Q 14.109375 46.140625 10.015625 43.890625  L 10.015625 52.203125  Q 14.9375 54.109375 19.578125 55.046875  Q 24.21875 56 28.609375 56  Q 40.484375 56 46.34375 49.84375  Q 52.203125 43.703125 52.203125 31.203125  z " id="DejaVuSans-97"/>
      <path d="M 18.3125 70.21875  L 18.3125 54.6875  L 36.8125 54.6875  L 36.8125 47.703125  L 18.3125 47.703125  L 18.3125 18.015625  Q 18.3125 11.328125 20.140625 9.421875  Q 21.96875 7.515625 27.59375 7.515625  L 36.8125 7.515625  L 36.8125 0  L 27.59375 0  Q 17.1875 0 13.234375 3.875  Q 9.28125 7.765625 9.28125 18.015625  L 9.28125 47.703125  L 2.6875 47.703125  L 2.6875 54.6875  L 9.28125 54.6875  L 9.28125 70.21875  z " id="DejaVuSans-116"/>
      <path d="M 9.421875 54.6875  L 18.40625 54.6875  L 18.40625 0  L 9.421875 0  z M 9.421875 75.984375  L 18.40625 75.984375  L 18.40625 64.59375  L 9.421875 64.59375  z " id="DejaVuSans-105"/>
      <path d="M 54.890625 33.015625  L 54.890625 0  L 45.90625 0  L 45.90625 32.71875  Q 45.90625 40.484375 42.875 44.328125  Q 39.84375 48.1875 33.796875 48.1875  Q 26.515625 48.1875 22.3125 43.546875  Q 18.109375 38.921875 18.109375 30.90625  L 18.109375 0  L 9.078125 0  L 9.078125 54.6875  L 18.109375 54.6875  L 18.109375 46.1875  Q 21.34375 51.125 25.703125 53.5625  Q 30.078125 56 35.796875 56  Q 45.21875 56 50.046875 50.171875  Q 54.890625 44.34375 54.890625 33.015625  z " id="DejaVuSans-110"/>
     </defs>
     <g transform="translate(175.374219 252.916562)scale(0.1 -0.1)">
      <use xlink:href="#DejaVuSans-80"/>
      <use x="56.677734" xlink:href="#DejaVuSans-111"/>
      <use x="117.859375" xlink:href="#DejaVuSans-112"/>
      <use x="181.335938" xlink:href="#DejaVuSans-117"/>
      <use x="244.714844" xlink:href="#DejaVuSans-108"/>
      <use x="272.498047" xlink:href="#DejaVuSans-97"/>
      <use x="333.777344" xlink:href="#DejaVuSans-116"/>
      <use x="372.986328" xlink:href="#DejaVuSans-105"/>
      <use x="400.769531" xlink:href="#DejaVuSans-111"/>
      <use x="461.951172" xlink:href="#DejaVuSans-110"/>
     </g>
    </g>
   </g>
   <g id="matplotlib.axis_2">
    <g id="ytick_1">
     <g id="line2d_8">
      <defs>
       <path d="M 0 0  L -3.5 0  " id="mee214f1209" style="stroke:#000000;stroke-width:0.8;"/>
      </defs>
      <g>
       <use style="stroke:#000000;stroke-width:0.8;" x="34.240625" xlink:href="#mee214f1209" y="201.138556"/>
      </g>
     </g>
     <g id="text_9">
      <!-- 0 -->
      <g transform="translate(20.878125 204.937774)scale(0.1 -0.1)">
       <use xlink:href="#DejaVuSans-48"/>
      </g>
     </g>
    </g>
    <g id="ytick_2">
     <g id="line2d_9">
      <g>
       <use style="stroke:#000000;stroke-width:0.8;" x="34.240625" xlink:href="#mee214f1209" y="169.706194"/>
      </g>
     </g>
     <g id="text_10">
      <!-- 1 -->
      <g transform="translate(20.878125 173.505412)scale(0.1 -0.1)">
       <use xlink:href="#DejaVuSans-49"/>
      </g>
     </g>
    </g>
    <g id="ytick_3">
     <g id="line2d_10">
      <g>
       <use style="stroke:#000000;stroke-width:0.8;" x="34.240625" xlink:href="#mee214f1209" y="138.273831"/>
      </g>
     </g>
     <g id="text_11">
      <!-- 2 -->
      <g transform="translate(20.878125 142.07305)scale(0.1 -0.1)">
       <use xlink:href="#DejaVuSans-50"/>
      </g>
     </g>
    </g>
    <g id="ytick_4">
     <g id="line2d_11">
      <g>
       <use style="stroke:#000000;stroke-width:0.8;" x="34.240625" xlink:href="#mee214f1209" y="106.841469"/>
      </g>
     </g>
     <g id="text_12">
      <!-- 3 -->
      <defs>
       <path d="M 40.578125 39.3125  Q 47.65625 37.796875 51.625 33  Q 55.609375 28.21875 55.609375 21.1875  Q 55.609375 10.40625 48.1875 4.484375  Q 40.765625 -1.421875 27.09375 -1.421875  Q 22.515625 -1.421875 17.65625 -0.515625  Q 12.796875 0.390625 7.625 2.203125  L 7.625 11.71875  Q 11.71875 9.328125 16.59375 8.109375  Q 21.484375 6.890625 26.8125 6.890625  Q 36.078125 6.890625 40.9375 10.546875  Q 45.796875 14.203125 45.796875 21.1875  Q 45.796875 27.640625 41.28125 31.265625  Q 36.765625 34.90625 28.71875 34.90625  L 20.21875 34.90625  L 20.21875 43.015625  L 29.109375 43.015625  Q 36.375 43.015625 40.234375 45.921875  Q 44.09375 48.828125 44.09375 54.296875  Q 44.09375 59.90625 40.109375 62.90625  Q 36.140625 65.921875 28.71875 65.921875  Q 24.65625 65.921875 20.015625 65.03125  Q 15.375 64.15625 9.8125 62.3125  L 9.8125 71.09375  Q 15.4375 72.65625 20.34375 73.4375  Q 25.25 74.21875 29.59375 74.21875  Q 40.828125 74.21875 47.359375 69.109375  Q 53.90625 64.015625 53.90625 55.328125  Q 53.90625 49.265625 50.4375 45.09375  Q 46.96875 40.921875 40.578125 39.3125  z " id="DejaVuSans-51"/>
      </defs>
      <g transform="translate(20.878125 110.640688)scale(0.1 -0.1)">
       <use xlink:href="#DejaVuSans-51"/>
      </g>
     </g>
    </g>
    <g id="ytick_5">
     <g id="line2d_12">
      <g>
       <use style="stroke:#000000;stroke-width:0.8;" x="34.240625" xlink:href="#mee214f1209" y="75.409107"/>
      </g>
     </g>
     <g id="text_13">
      <!-- 4 -->
      <defs>
       <path d="M 37.796875 64.3125  L 12.890625 25.390625  L 37.796875 25.390625  z M 35.203125 72.90625  L 47.609375 72.90625  L 47.609375 25.390625  L 58.015625 25.390625  L 58.015625 17.1875  L 47.609375 17.1875  L 47.609375 0  L 37.796875 0  L 37.796875 17.1875  L 4.890625 17.1875  L 4.890625 26.703125  z " id="DejaVuSans-52"/>
      </defs>
      <g transform="translate(20.878125 79.208326)scale(0.1 -0.1)">
       <use xlink:href="#DejaVuSans-52"/>
      </g>
     </g>
    </g>
    <g id="ytick_6">
     <g id="line2d_13">
      <g>
       <use style="stroke:#000000;stroke-width:0.8;" x="34.240625" xlink:href="#mee214f1209" y="43.976745"/>
      </g>
     </g>
     <g id="text_14">
      <!-- 5 -->
      <g transform="translate(20.878125 47.775964)scale(0.1 -0.1)">
       <use xlink:href="#DejaVuSans-53"/>
      </g>
     </g>
    </g>
    <g id="ytick_7">
     <g id="line2d_14">
      <g>
       <use style="stroke:#000000;stroke-width:0.8;" x="34.240625" xlink:href="#mee214f1209" y="12.544383"/>
      </g>
     </g>
     <g id="text_15">
      <!-- 6 -->
      <defs>
       <path d="M 33.015625 40.375  Q 26.375 40.375 22.484375 35.828125  Q 18.609375 31.296875 18.609375 23.390625  Q 18.609375 15.53125 22.484375 10.953125  Q 26.375 6.390625 33.015625 6.390625  Q 39.65625 6.390625 43.53125 10.953125  Q 47.40625 15.53125 47.40625 23.390625  Q 47.40625 31.296875 43.53125 35.828125  Q 39.65625 40.375 33.015625 40.375  z M 52.59375 71.296875  L 52.59375 62.3125  Q 48.875 64.0625 45.09375 64.984375  Q 41.3125 65.921875 37.59375 65.921875  Q 27.828125 65.921875 22.671875 59.328125  Q 17.53125 52.734375 16.796875 39.40625  Q 19.671875 43.65625 24.015625 45.921875  Q 28.375 48.1875 33.59375 48.1875  Q 44.578125 48.1875 50.953125 41.515625  Q 57.328125 34.859375 57.328125 23.390625  Q 57.328125 12.15625 50.6875 5.359375  Q 44.046875 -1.421875 33.015625 -1.421875  Q 20.359375 -1.421875 13.671875 8.265625  Q 6.984375 17.96875 6.984375 36.375  Q 6.984375 53.65625 15.1875 63.9375  Q 23.390625 74.21875 37.203125 74.21875  Q 40.921875 74.21875 44.703125 73.484375  Q 48.484375 72.75 52.59375 71.296875  z " id="DejaVuSans-54"/>
      </defs>
      <g transform="translate(20.878125 16.343601)scale(0.1 -0.1)">
       <use xlink:href="#DejaVuSans-54"/>
      </g>
     </g>
    </g>
    <g id="text_16">
     <!-- Bed per 100 people -->
     <defs>
      <path d="M 19.671875 34.8125  L 19.671875 8.109375  L 35.5 8.109375  Q 43.453125 8.109375 47.28125 11.40625  Q 51.125 14.703125 51.125 21.484375  Q 51.125 28.328125 47.28125 31.5625  Q 43.453125 34.8125 35.5 34.8125  z M 19.671875 64.796875  L 19.671875 42.828125  L 34.28125 42.828125  Q 41.5 42.828125 45.03125 45.53125  Q 48.578125 48.25 48.578125 53.8125  Q 48.578125 59.328125 45.03125 62.0625  Q 41.5 64.796875 34.28125 64.796875  z M 9.8125 72.90625  L 35.015625 72.90625  Q 46.296875 72.90625 52.390625 68.21875  Q 58.5 63.53125 58.5 54.890625  Q 58.5 48.1875 55.375 44.234375  Q 52.25 40.28125 46.1875 39.3125  Q 53.46875 37.75 57.5 32.78125  Q 61.53125 27.828125 61.53125 20.40625  Q 61.53125 10.640625 54.890625 5.3125  Q 48.25 0 35.984375 0  L 9.8125 0  z " id="DejaVuSans-66"/>
      <path d="M 56.203125 29.59375  L 56.203125 25.203125  L 14.890625 25.203125  Q 15.484375 15.921875 20.484375 11.0625  Q 25.484375 6.203125 34.421875 6.203125  Q 39.59375 6.203125 44.453125 7.46875  Q 49.3125 8.734375 54.109375 11.28125  L 54.109375 2.78125  Q 49.265625 0.734375 44.1875 -0.34375  Q 39.109375 -1.421875 33.890625 -1.421875  Q 20.796875 -1.421875 13.15625 6.1875  Q 5.515625 13.8125 5.515625 26.8125  Q 5.515625 40.234375 12.765625 48.109375  Q 20.015625 56 32.328125 56  Q 43.359375 56 49.78125 48.890625  Q 56.203125 41.796875 56.203125 29.59375  z M 47.21875 32.234375  Q 47.125 39.59375 43.09375 43.984375  Q 39.0625 48.390625 32.421875 48.390625  Q 24.90625 48.390625 20.390625 44.140625  Q 15.875 39.890625 15.1875 32.171875  z " id="DejaVuSans-101"/>
      <path d="M 45.40625 46.390625  L 45.40625 75.984375  L 54.390625 75.984375  L 54.390625 0  L 45.40625 0  L 45.40625 8.203125  Q 42.578125 3.328125 38.25 0.953125  Q 33.9375 -1.421875 27.875 -1.421875  Q 17.96875 -1.421875 11.734375 6.484375  Q 5.515625 14.40625 5.515625 27.296875  Q 5.515625 40.1875 11.734375 48.09375  Q 17.96875 56 27.875 56  Q 33.9375 56 38.25 53.625  Q 42.578125 51.265625 45.40625 46.390625  z M 14.796875 27.296875  Q 14.796875 17.390625 18.875 11.75  Q 22.953125 6.109375 30.078125 6.109375  Q 37.203125 6.109375 41.296875 11.75  Q 45.40625 17.390625 45.40625 27.296875  Q 45.40625 37.203125 41.296875 42.84375  Q 37.203125 48.484375 30.078125 48.484375  Q 22.953125 48.484375 18.875 42.84375  Q 14.796875 37.203125 14.796875 27.296875  z " id="DejaVuSans-100"/>
      <path id="DejaVuSans-32"/>
      <path d="M 41.109375 46.296875  Q 39.59375 47.171875 37.8125 47.578125  Q 36.03125 48 33.890625 48  Q 26.265625 48 22.1875 43.046875  Q 18.109375 38.09375 18.109375 28.8125  L 18.109375 0  L 9.078125 0  L 9.078125 54.6875  L 18.109375 54.6875  L 18.109375 46.1875  Q 20.953125 51.171875 25.484375 53.578125  Q 30.03125 56 36.53125 56  Q 37.453125 56 38.578125 55.875  Q 39.703125 55.765625 41.0625 55.515625  z " id="DejaVuSans-114"/>
     </defs>
     <g transform="translate(14.798438 165.168437)rotate(-90)scale(0.1 -0.1)">
      <use xlink:href="#DejaVuSans-66"/>
      <use x="68.603516" xlink:href="#DejaVuSans-101"/>
      <use x="130.126953" xlink:href="#DejaVuSans-100"/>
      <use x="193.603516" xlink:href="#DejaVuSans-32"/>
      <use x="225.390625" xlink:href="#DejaVuSans-112"/>
      <use x="288.867188" xlink:href="#DejaVuSans-101"/>
      <use x="350.390625" xlink:href="#DejaVuSans-114"/>
      <use x="391.503906" xlink:href="#DejaVuSans-32"/>
      <use x="423.291016" xlink:href="#DejaVuSans-49"/>
      <use x="486.914062" xlink:href="#DejaVuSans-48"/>
      <use x="550.537109" xlink:href="#DejaVuSans-48"/>
      <use x="614.160156" xlink:href="#DejaVuSans-32"/>
      <use x="645.947266" xlink:href="#DejaVuSans-112"/>
      <use x="709.423828" xlink:href="#DejaVuSans-101"/>
      <use x="770.947266" xlink:href="#DejaVuSans-111"/>
      <use x="832.128906" xlink:href="#DejaVuSans-112"/>
      <use x="895.605469" xlink:href="#DejaVuSans-108"/>
      <use x="923.388672" xlink:href="#DejaVuSans-101"/>
     </g>
    </g>
   </g>
   <g id="patch_3">
    <path d="M 34.240625 224.64  L 34.240625 7.2  " style="fill:none;stroke:#000000;stroke-linecap:square;stroke-linejoin:miter;stroke-width:0.8;"/>
   </g>
   <g id="patch_4">
    <path d="M 369.040625 224.64  L 369.040625 7.2  " style="fill:none;stroke:#000000;stroke-linecap:square;stroke-linejoin:miter;stroke-width:0.8;"/>
   </g>
   <g id="patch_5">
    <path d="M 34.240625 224.64  L 369.040625 224.64  " style="fill:none;stroke:#000000;stroke-linecap:square;stroke-linejoin:miter;stroke-width:0.8;"/>
   </g>
   <g id="patch_6">
    <path d="M 34.240625 7.2  L 369.040625 7.2  " style="fill:none;stroke:#000000;stroke-linecap:square;stroke-linejoin:miter;stroke-width:0.8;"/>
   </g>
  </g>
 </g>
 <defs>
  <clipPath id="pb89490b4bb">
   <rect height="217.44" width="334.8" x="34.240625" y="7.2"/>
  </clipPath>
 </defs>
</svg>