<svg height="349.595" viewBox="0 0 376.241 262.196" width="501.654" xmlns="http://www.w3.org/2000/svg" xmlns:xlink="http://www.w3.org/1999/xlink"><defs><style>*{stroke-linecap:butt;stroke-linejoin:round}</style></defs><g id="figure_1"><path d="M0 262.196h376.24V0H0z" fill="none" id="patch_1"/><g id="axes_1"><path d="M34.24 224.64h334.8V7.2H34.24z" fill="#fff" id="patch_2"/><g id="PathCollection_1"><defs><path d="M0 3.536a3.536 3.536 0 100-7.072 3.536 3.536 0 000 7.072z" id="C0_0_2a042a3d78"/></defs><g clip-path="url(#p7031e62d0f)"><use x="353.822" xlink:href="#C0_0_2a042a3d78" y="213.933" fill="#440154" stroke="#440154"/></g><g clip-path="url(#p7031e62d0f)"><use x="143.286" xlink:href="#C0_0_2a042a3d78" y="203.399" fill="#21918c" stroke="#21918c"/></g><g clip-path="url(#p7031e62d0f)"><use x="103.838" xlink:href="#C0_0_2a042a3d78" y="207.045" fill="#21918c" stroke="#21918c"/></g><g clip-path="url(#p7031e62d0f)"><use x="152.805" xlink:href="#C0_0_2a042a3d78" y="205.449" fill="#21918c" stroke="#21918c"/></g><g clip-path="url(#p7031e62d0f)"><use x="305.473" xlink:href="#C0_0_2a042a3d78" y="212.831" fill="#440154" stroke="#440154"/></g><g clip-path="url(#p7031e62d0f)"><use x="54.998" xlink:href="#C0_0_2a042a3d78" y="175.739" fill="#21918c" stroke="#21918c"/></g><g clip-path="url(#p7031e62d0f)"><use x="129.186" xlink:href="#C0_0_2a042a3d78" y="210.96" fill="#21918c" stroke="#21918c"/></g><g clip-path="url(#p7031e62d0f)"><use x="130.303" xlink:href="#C0_0_2a042a3d78" y="211.64" fill="#21918c" stroke="#21918c"/></g><g clip-path="url(#p7031e62d0f)"><use x="126.085" xlink:href="#C0_0_2a042a3d78" y="209.091" fill="#21918c" stroke="#21918c"/></g><g clip-path="url(#p7031e62d0f)"><use x="335.088" xlink:href="#C0_0_2a042a3d78" y="213.305" fill="#440154" stroke="#440154"/></g><g clip-path="url(#p7031e62d0f)"><use x="276.812" xlink:href="#C0_0_2a042a3d78" y="183.258" fill="#440154" stroke="#440154"/></g><g clip-path="url(#p7031e62d0f)"><use x="120.788" xlink:href="#C0_0_2a042a3d78" y="209.05" fill="#21918c" stroke="#21918c"/></g><g clip-path="url(#p7031e62d0f)"><use x="163.667" xlink:href="#C0_0_2a042a3d78" y="195.809" fill="#21918c" stroke="#21918c"/></g><g clip-path="url(#p7031e62d0f)"><use x="319.204" xlink:href="#C0_0_2a042a3d78" y="211.076" fill="#440154" stroke="#440154"/></g><g clip-path="url(#p7031e62d0f)"><use x="156.539" xlink:href="#C0_0_2a042a3d78" y="211.149" fill="#21918c" stroke="#21918c"/></g><g clip-path="url(#p7031e62d0f)"><use x="120.726" xlink:href="#C0_0_2a042a3d78" y="192.723" fill="#21918c" stroke="#21918c"/></g><g clip-path="url(#p7031e62d0f)"><use x="207.529" xlink:href="#C0_0_2a042a3d78" y="211.675" fill="#440154" stroke="#440154"/></g><g clip-path="url(#p7031e62d0f)"><use x="88.317" xlink:href="#C0_0_2a042a3d78" y="195.196" fill="#21918c" stroke="#21918c"/></g><g clip-path="url(#p7031e62d0f)"><use x="90.837" xlink:href="#C0_0_2a042a3d78" y="167.1" fill="#21918c" stroke="#21918c"/></g><g clip-path="url(#p7031e62d0f)"><use x="90.687" xlink:href="#C0_0_2a042a3d78" y="203.257" fill="#21918c" stroke="#21918c"/></g><g clip-path="url(#p7031e62d0f)"><use x="154.195" xlink:href="#C0_0_2a042a3d78" y="212.055" fill="#21918c" stroke="#21918c"/></g><g clip-path="url(#p7031e62d0f)"><use x="260.092" xlink:href="#C0_0_2a042a3d78" y="210.43" fill="#440154" stroke="#440154"/></g><g clip-path="url(#p7031e62d0f)"><use x="80.953" xlink:href="#C0_0_2a042a3d78" y="172.656" fill="#21918c" stroke="#21918c"/></g><g clip-path="url(#p7031e62d0f)"><use x="63.628" xlink:href="#C0_0_2a042a3d78" y="205.649" fill="#21918c" stroke="#21918c"/></g><g clip-path="url(#p7031e62d0f)"><use x="50.718" xlink:href="#C0_0_2a042a3d78" y="17.084" fill="#fde725" stroke="#fde725"/></g><g clip-path="url(#p7031e62d0f)"><use x="114.485" xlink:href="#C0_0_2a042a3d78" y="187.835" fill="#21918c" stroke="#21918c"/></g><g clip-path="url(#p7031e62d0f)"><use x="53.014" xlink:href="#C0_0_2a042a3d78" y="197.326" fill="#21918c" stroke="#21918c"/></g><g clip-path="url(#p7031e62d0f)"><use x="92.058" xlink:href="#C0_0_2a042a3d78" y="201.934" fill="#21918c" stroke="#21918c"/></g><g clip-path="url(#p7031e62d0f)"><use x="241.013" xlink:href="#C0_0_2a042a3d78" y="195.344" fill="#440154" stroke="#440154"/></g><g clip-path="url(#p7031e62d0f)"><use x="140.331" xlink:href="#C0_0_2a042a3d78" y="214.756" fill="#21918c" stroke="#21918c"/></g><g clip-path="url(#p7031e62d0f)"><use x="176.515" xlink:href="#C0_0_2a042a3d78" y="210.447" fill="#21918c" stroke="#21918c"/></g><g clip-path="url(#p7031e62d0f)"><use x="190.635" xlink:href="#C0_0_2a042a3d78" y="212.121" fill="#440154" stroke="#440154"/></g><g clip-path="url(#p7031e62d0f)"><use x="49.459" xlink:href="#C0_0_2a042a3d78" y="186.98" fill="#21918c" stroke="#21918c"/></g><g clip-path="url(#p7031e62d0f)"><use x="298.503" xlink:href="#C0_0_2a042a3d78" y="212.469" fill="#440154" stroke="#440154"/></g><g clip-path="url(#p7031e62d0f)"><use x="80.83" xlink:href="#C0_0_2a042a3d78" y="145.016" fill="#21918c" stroke="#21918c"/></g><g clip-path="url(#p7031e62d0f)"><use x="294.696" xlink:href="#C0_0_2a042a3d78" y="210.384" fill="#440154" stroke="#440154"/></g><g clip-path="url(#p7031e62d0f)"><use x="196.708" xlink:href="#C0_0_2a042a3d78" y="214.377" fill="#440154" stroke="#440154"/></g><g clip-path="url(#p7031e62d0f)"><use x="72.506" xlink:href="#C0_0_2a042a3d78" y="177.303" fill="#21918c" stroke="#21918c"/></g><g clip-path="url(#p7031e62d0f)"><use x="118.765" xlink:href="#C0_0_2a042a3d78" y="208.043" fill="#21918c" stroke="#21918c"/></g><g clip-path="url(#p7031e62d0f)"><use x="103.137" xlink:href="#C0_0_2a042a3d78" y="176.495" fill="#21918c" stroke="#21918c"/></g></g><g id="PathCollection_2"><defs><path d="M0 7.071A7.071 7.071 0 100-7.072 7.071 7.071 0 000 7.071z" id="mfa84f93c17" stroke="#000" stroke-opacity=".5"/></defs><g clip-path="url(#p7031e62d0f)" fill-opacity=".5" stroke="#000" stroke-opacity=".5"><use x="273.298" xlink:href="#mfa84f93c17" y="208.433"/><use x="110.072" xlink:href="#mfa84f93c17" y="196.078"/><use x="50.718" xlink:href="#mfa84f93c17" y="17.084"/></g></g><g id="matplotlib.axis_1"><g id="xtick_1"><g id="line2d_1"><defs><path d="M0 0v3.5" id="m36d7b78cc5" stroke="#000" stroke-width=".8"/></defs><use x="71.055" xlink:href="#m36d7b78cc5" y="224.64" stroke="#000" stroke-width=".8"/></g><g id="text_1"><defs><path d="M10.594 35.5h62.593v-8.297H10.594z" id="DejaVuSans-8722"/><path d="M12.406 8.297h16.11v55.625l-17.532-3.516v8.985l17.438 3.515h9.86V8.296H54.39V0H12.406z" id="DejaVuSans-49"/><path d="M10.688 12.406H21V0H10.687z" id="DejaVuSans-46"/><path d="M31.781 66.406q-7.61 0-11.453-7.5Q16.5 51.422 16.5 36.375q0-14.984 3.828-22.484 3.844-7.5 11.453-7.5 7.672 0 11.5 7.5 3.844 7.5 3.844 22.484 0 15.047-3.844 22.531-3.828 7.5-11.5 7.5zm0 7.813q12.266 0 18.735-9.703 6.468-9.688 6.468-28.141 0-18.406-6.468-28.11-6.47-9.687-18.735-9.687-12.25 0-18.718 9.688-6.47 9.703-6.47 28.109 0 18.453 6.47 28.14Q19.53 74.22 31.78 74.22z" id="DejaVuSans-48"/></defs><g transform="matrix(.1 0 0 -.1 58.914 239.238)"><use xlink:href="#DejaVuSans-8722"/><use x="83.789" xlink:href="#DejaVuSans-49"/><use x="147.412" xlink:href="#DejaVuSans-46"/><use x="179.199" xlink:href="#DejaVuSans-48"/></g></g></g><g id="xtick_2"><use x="114.305" xlink:href="#m36d7b78cc5" y="224.64" stroke="#000" stroke-width=".8" id="line2d_2"/><g id="text_2"><defs><path d="M10.797 72.906h38.719v-8.312H19.828v-17.86q2.14.735 4.281 1.094 2.157.36 4.313.36 12.203 0 19.328-6.688 7.14-6.688 7.14-18.11 0-11.765-7.328-18.296-7.328-6.516-20.656-6.516-4.593 0-9.36.781-4.75.782-9.827 2.344v9.922q4.39-2.39 9.078-3.563 4.687-1.171 9.906-1.171 8.453 0 13.375 4.437 4.938 4.438 4.938 12.063 0 7.609-4.938 12.047-4.922 4.453-13.375 4.453-3.953 0-7.89-.875-3.922-.875-8.016-2.735z" id="DejaVuSans-53"/></defs><g transform="matrix(.1 0 0 -.1 102.164 239.238)"><use xlink:href="#DejaVuSans-8722"/><use x="83.789" xlink:href="#DejaVuSans-48"/><use x="147.412" xlink:href="#DejaVuSans-46"/><use x="179.199" xlink:href="#DejaVuSans-53"/></g></g></g><g id="xtick_3"><use x="157.556" xlink:href="#m36d7b78cc5" y="224.64" stroke="#000" stroke-width=".8" id="line2d_3"/><g transform="matrix(.1 0 0 -.1 149.604 239.238)" id="text_3"><use xlink:href="#DejaVuSans-48"/><use x="63.623" xlink:href="#DejaVuSans-46"/><use x="95.41" xlink:href="#DejaVuSans-48"/></g></g><g id="xtick_4"><use x="200.806" xlink:href="#m36d7b78cc5" y="224.64" stroke="#000" stroke-width=".8" id="line2d_4"/><g transform="matrix(.1 0 0 -.1 192.855 239.238)" id="text_4"><use xlink:href="#DejaVuSans-48"/><use x="63.623" xlink:href="#DejaVuSans-46"/><use x="95.41" xlink:href="#DejaVuSans-53"/></g></g><g id="xtick_5"><use x="244.057" xlink:href="#m36d7b78cc5" y="224.64" stroke="#000" stroke-width=".8" id="line2d_5"/><g transform="matrix(.1 0 0 -.1 236.105 239.238)" id="text_5"><use xlink:href="#DejaVuSans-49"/><use x="63.623" xlink:href="#DejaVuSans-46"/><use x="95.41" xlink:href="#DejaVuSans-48"/></g></g><g id="xtick_6"><use x="287.307" xlink:href="#m36d7b78cc5" y="224.64" stroke="#000" stroke-width=".8" id="line2d_6"/><g transform="matrix(.1 0 0 -.1 279.355 239.238)" id="text_6"><use xlink:href="#DejaVuSans-49"/><use x="63.623" xlink:href="#DejaVuSans-46"/><use x="95.41" xlink:href="#DejaVuSans-53"/></g></g><g id="xtick_7"><use x="330.557" xlink:href="#m36d7b78cc5" y="224.64" stroke="#000" stroke-width=".8" id="line2d_7"/><g id="text_7"><defs><path d="M19.188 8.297h34.421V0H7.33v8.297q5.609 5.812 15.296 15.594 9.703 9.797 12.188 12.64 4.734 5.313 6.609 9 1.89 3.688 1.89 7.25 0 5.813-4.078 9.469-4.078 3.672-10.625 3.672-4.64 0-9.797-1.61-5.14-1.609-11-4.89v9.969Q13.767 71.78 18.938 73q5.188 1.219 9.485 1.219 11.328 0 18.062-5.672 6.735-5.656 6.735-15.125 0-4.5-1.688-8.531-1.672-4.016-6.125-9.485-1.218-1.422-7.765-8.187-6.532-6.766-18.453-18.922z" id="DejaVuSans-50"/></defs><g transform="matrix(.1 0 0 -.1 322.606 239.238)"><use xlink:href="#DejaVuSans-50"/><use x="63.623" xlink:href="#DejaVuSans-46"/><use x="95.41" xlink:href="#DejaVuSans-48"/></g></g></g><g id="text_8"><defs><path d="M19.672 64.797v-27.39h12.406q6.89 0 10.64 3.562 3.766 3.562 3.766 10.156 0 6.547-3.765 10.11-3.75 3.562-10.64 3.562zm-9.86 8.11h22.266q12.266 0 18.531-5.548 6.282-5.546 6.282-16.234 0-10.797-6.282-16.313-6.265-5.515-18.53-5.515H19.671V0h-9.86z" id="DejaVuSans-80"/><path d="M30.61 48.39q-7.22 0-11.422-5.64-4.204-5.64-4.204-15.453 0-9.813 4.172-15.453 4.188-5.64 11.453-5.64 7.188 0 11.375 5.655 4.203 5.672 4.203 15.438 0 9.719-4.203 15.406-4.187 5.688-11.375 5.688zm0 7.61q11.718 0 18.406-7.625 6.703-7.61 6.703-21.078 0-13.422-6.703-21.078-6.688-7.64-18.407-7.64-11.765 0-18.437 7.64-6.656 7.656-6.656 21.078 0 13.469 6.656 21.078Q18.844 56 30.609 56z" id="DejaVuSans-111"/><path d="M18.11 8.203v-29H9.077v75.484h9.031v-8.296q2.844 4.875 7.157 7.234Q29.594 56 35.594 56q9.968 0 16.187-7.906 6.235-7.907 6.235-20.797T51.78 6.484q-6.218-7.906-16.187-7.906-6 0-10.328 2.375-4.313 2.375-7.157 7.25zm30.578 19.094q0 9.906-4.079 15.547-4.078 5.64-11.203 5.64-7.14 0-11.218-5.64-4.079-5.64-4.079-15.547 0-9.906 4.078-15.547 4.079-5.64 11.22-5.64 7.124 0 11.202 5.64t4.078 15.547z" id="DejaVuSans-112"/><path d="M8.5 21.578v33.11h8.984V21.922q0-7.766 3.016-11.656 3.031-3.875 9.094-3.875 7.265 0 11.484 4.64 4.234 4.64 4.234 12.656v31h8.985V0h-8.984v8.406Q42.047 3.422 37.718 1q-4.313-2.422-10.032-2.422-9.421 0-14.312 5.86Q8.5 10.296 8.5 21.578zM31.11 56z" id="DejaVuSans-117"/><path d="M9.422 75.984h8.984V0H9.422z" id="DejaVuSans-108"/><path d="M34.281 27.484q-10.89 0-15.093-2.484-4.204-2.484-4.204-8.5 0-4.781 3.157-7.594 3.156-2.797 8.562-2.797 7.485 0 12 5.297 4.516 5.297 4.516 14.078v2zm17.922 3.72V0H43.22v8.297Q40.14 3.328 35.547.953q-4.594-2.375-11.234-2.375-8.391 0-13.36 4.719Q6 8.016 6 15.922q0 9.219 6.172 13.906 6.187 4.688 18.437 4.688h12.61v.89q0 6.203-4.078 9.594-4.078 3.39-11.453 3.39-4.688 0-9.141-1.124-4.438-1.125-8.531-3.375v8.312q4.921 1.906 9.562 2.844 4.64.953 9.031.953 11.875 0 17.735-6.156 5.86-6.14 5.86-18.64z" id="DejaVuSans-97"/><path d="M18.313 70.219V54.688h18.5v-6.985h-18.5V18.016q0-6.688 1.828-8.594 1.828-1.906 7.453-1.906h9.218V0h-9.218q-10.407 0-14.36 3.875-3.953 3.89-3.953 14.14v29.688H2.687v6.984h6.594V70.22z" id="DejaVuSans-116"/><path d="M9.422 54.688h8.984V0H9.422zm0 21.296h8.984v-11.39H9.422z" id="DejaVuSans-105"/><path d="M54.89 33.016V0h-8.984v32.719q0 7.765-3.031 11.61-3.031 3.858-9.078 3.858-7.281 0-11.484-4.64-4.204-4.625-4.204-12.64V0H9.08v54.688h9.03v-8.5q3.235 4.937 7.594 7.374Q30.078 56 35.797 56q9.422 0 14.25-5.828 4.844-5.828 4.844-17.156z" id="DejaVuSans-110"/></defs><g transform="matrix(.1 0 0 -.1 175.374 252.917)"><use xlink:href="#DejaVuSans-80"/><use x="56.678" xlink:href="#DejaVuSans-111"/><use x="117.859" xlink:href="#DejaVuSans-112"/><use x="181.336" xlink:href="#DejaVuSans-117"/><use x="244.715" xlink:href="#DejaVuSans-108"/><use x="272.498" xlink:href="#DejaVuSans-97"/><use x="333.777" xlink:href="#DejaVuSans-116"/><use x="372.986" xlink:href="#DejaVuSans-105"/><use x="400.77" xlink:href="#DejaVuSans-111"/><use x="461.951" xlink:href="#DejaVuSans-110"/></g></g></g><g id="matplotlib.axis_2"><g id="ytick_1"><g id="line2d_8"><defs><path d="M0 0h-3.5" id="m29d19d659c" stroke="#000" stroke-width=".8"/></defs><use x="34.241" xlink:href="#m29d19d659c" y="195.31" stroke="#000" stroke-width=".8"/></g><use xlink:href="#DejaVuSans-48" transform="matrix(.1 0 0 -.1 20.878 199.109)" id="text_9"/></g><g id="ytick_2"><use x="34.241" xlink:href="#m29d19d659c" y="162.696" stroke="#000" stroke-width=".8" id="line2d_9"/><use xlink:href="#DejaVuSans-49" transform="matrix(.1 0 0 -.1 20.878 166.495)" id="text_10"/></g><g id="ytick_3"><use x="34.241" xlink:href="#m29d19d659c" y="130.082" stroke="#000" stroke-width=".8" id="line2d_10"/><use xlink:href="#DejaVuSans-50" transform="matrix(.1 0 0 -.1 20.878 133.88)" id="text_11"/></g><g id="ytick_4"><use x="34.241" xlink:href="#m29d19d659c" y="97.467" stroke="#000" stroke-width=".8" id="line2d_11"/><g id="text_12"><defs><path d="M40.578 39.313Q47.656 37.797 51.625 33q3.984-4.781 3.984-11.813 0-10.78-7.422-16.703-7.421-5.906-21.093-5.906-4.578 0-9.438.906-4.86.907-10.031 2.72v9.515q4.094-2.39 8.969-3.61 4.89-1.218 10.218-1.218 9.266 0 14.125 3.656 4.86 3.656 4.86 10.64 0 6.454-4.516 10.079-4.515 3.64-12.562 3.64h-8.5v8.11h8.89q7.266 0 11.125 2.906 3.86 2.906 3.86 8.375 0 5.61-3.985 8.61-3.968 3.015-11.39 3.015-4.063 0-8.703-.89-4.641-.876-10.203-2.72v8.782q5.624 1.562 10.53 2.344 4.907.78 9.25.78 11.235 0 17.766-5.109 6.547-5.093 6.547-13.78 0-6.063-3.468-10.235-3.47-4.172-9.86-5.782z" id="DejaVuSans-51"/></defs><use xlink:href="#DejaVuSans-51" transform="matrix(.1 0 0 -.1 20.878 101.267)"/></g></g><g id="ytick_5"><use x="34.241" xlink:href="#m29d19d659c" y="64.853" stroke="#000" stroke-width=".8" id="line2d_12"/><g id="text_13"><defs><path d="M37.797 64.313L12.89 25.39h24.906zm-2.594 8.593H47.61V25.391h10.407v-8.203H47.609V0h-9.812v17.188H4.89v9.515z" id="DejaVuSans-52"/></defs><use xlink:href="#DejaVuSans-52" transform="matrix(.1 0 0 -.1 20.878 68.653)"/></g></g><g id="ytick_6"><use x="34.241" xlink:href="#m29d19d659c" y="32.239" stroke="#000" stroke-width=".8" id="line2d_13"/><use xlink:href="#DejaVuSans-53" transform="matrix(.1 0 0 -.1 20.878 36.038)" id="text_14"/></g><g id="text_15"><defs><path d="M48.688 27.297q0 9.906-4.079 15.547-4.078 5.64-11.203 5.64-7.14 0-11.218-5.64-4.079-5.64-4.079-15.547 0-9.906 4.078-15.547 4.079-5.64 11.22-5.64 7.124 0 11.202 5.64t4.078 15.547zM18.108 46.39q2.844 4.875 7.157 7.234Q29.594 56 35.594 56q9.968 0 16.187-7.906 6.235-7.907 6.235-20.797T51.78 6.484q-6.218-7.906-16.187-7.906-6 0-10.328 2.375-4.313 2.375-7.157 7.25V0H9.08v75.984h9.03z" id="DejaVuSans-98"/><path d="M56.203 29.594v-4.39H14.891q.593-9.282 5.593-14.142 5-4.859 13.938-4.859 5.172 0 10.031 1.266 4.86 1.265 9.656 3.812v-8.5Q49.266.734 44.187-.344 39.11-1.422 33.892-1.422q-13.094 0-20.735 7.61-7.64 7.625-7.64 20.625 0 13.421 7.25 21.296Q20.016 56 32.328 56q11.031 0 17.453-7.11 6.422-7.093 6.422-19.296zm-8.984 2.64q-.094 7.36-4.125 11.75-4.032 4.407-10.672 4.407-7.516 0-12.031-4.25-4.516-4.25-5.203-11.97z" id="DejaVuSans-101"/><path d="M45.406 46.39v29.594h8.985V0h-8.985v8.203Q42.578 3.328 38.25.953q-4.313-2.375-10.375-2.375-9.906 0-16.14 7.906-6.22 7.922-6.22 20.813 0 12.89 6.22 20.797Q17.968 56 27.874 56q6.063 0 10.375-2.375 4.328-2.36 7.156-7.234zm-30.61-19.093q0-9.906 4.079-15.547 4.078-5.64 11.203-5.64 7.125 0 11.219 5.64 4.11 5.64 4.11 15.547 0 9.906-4.11 15.547-4.094 5.64-11.219 5.64-7.125 0-11.203-5.64-4.078-5.64-4.078-15.547z" id="DejaVuSans-100"/><path d="M41.11 46.297q-1.516.875-3.297 1.281Q36.03 48 33.89 48q-7.625 0-11.703-4.953-4.079-4.953-4.079-14.234V0H9.08v54.688h9.03v-8.5q2.844 4.984 7.375 7.39Q30.031 56 36.531 56q.922 0 2.047-.125 1.125-.11 2.484-.36z" id="DejaVuSans-114"/></defs><g transform="matrix(0 -.1 -.1 0 14.798 164.912)"><use xlink:href="#DejaVuSans-98"/><use x="63.477" xlink:href="#DejaVuSans-101"/><use x="125" xlink:href="#DejaVuSans-100"/><use x="188.477" xlink:href="#DejaVuSans-32"/><use x="220.264" xlink:href="#DejaVuSans-112"/><use x="283.74" xlink:href="#DejaVuSans-101"/><use x="345.264" xlink:href="#DejaVuSans-114"/><use x="386.377" xlink:href="#DejaVuSans-32"/><use x="418.164" xlink:href="#DejaVuSans-49"/><use x="481.787" xlink:href="#DejaVuSans-48"/><use x="545.41" xlink:href="#DejaVuSans-48"/><use x="609.033" xlink:href="#DejaVuSans-32"/><use x="640.82" xlink:href="#DejaVuSans-112"/><use x="704.297" xlink:href="#DejaVuSans-101"/><use x="765.82" xlink:href="#DejaVuSans-111"/><use x="827.002" xlink:href="#DejaVuSans-112"/><use x="890.479" xlink:href="#DejaVuSans-108"/><use x="918.262" xlink:href="#DejaVuSans-101"/></g></g></g><path d="M34.24 224.64V7.2" fill="none" stroke="#000" stroke-linecap="square" stroke-width=".8" id="patch_3"/><path d="M369.04 224.64V7.2" fill="none" stroke="#000" stroke-linecap="square" stroke-width=".8" id="patch_4"/><path d="M34.24 224.64h334.8" fill="none" stroke="#000" stroke-linecap="square" stroke-width=".8" id="patch_5"/><path d="M34.24 7.2h334.8" fill="none" stroke="#000" stroke-linecap="square" stroke-width=".8" id="patch_6"/></g></g><defs><clipPath id="p7031e62d0f"><path d="M34.241 7.2h334.8v217.44h-334.8z"/></clipPath></defs></svg>